<svg id="Layer_1" data-name="Layer 1" xmlns="http://www.w3.org/2000/svg" viewBox="0 0 191.42 175.86"><title>reverse</title><path d="M162.34,111.73a22.08,22.08,0,0,0,2.44-.84c.74-.3,1.63-.68,2.61-1.16a28.51,28.51,0,0,0,3.15-1.77,34.12,34.12,0,0,0,3.36-2.44,32.59,32.59,0,0,0,3.21-3.14,27.08,27.08,0,0,0,2.73-3.81,22.52,22.52,0,0,0,1.91-4.35s.21-1.48.45,0a36.85,36.85,0,0,0,1.63,4.58c.59,1.51,1.32,3,2.07,4.5s1.47,2.93,2.26,4.34,1.49,2.77,2.24,4c1.51,2.57,2.73,4.8,3.74,6.41l1.57,2.55-9.59-2.56-.9,3.14c-.3,1-.69,2.06-1,3.1s-.7,2.06-1.12,3.06l-.6,1.52-.31.76-.07.19L182,130c-.09.24-.19.48-.3.71l-.63,1.4c-.42.93-.83,1.87-1.28,2.79l-1.4,2.73a94.63,94.63,0,0,1-55.08,46,95.55,95.55,0,0,1-24.11,4.24,94.34,94.34,0,0,1-67.5-24.29A95,95,0,0,1,15.9,144.91l6.29-4.08-.4.24,6.3-4.08a79.38,79.38,0,0,0,30.42,27.54,79.54,79.54,0,0,0,40.08,8.75A81.46,81.46,0,0,0,119,169.7a80,80,0,0,0,46.54-38.91l1.19-2.31c.38-.77.71-1.57,1.08-2.35l.53-1.18c.09-.2.17-.4.25-.6l0-.11.07-.16.25-.64.5-1.28c.35-.85.64-1.72.92-2.6s.61-1.73.86-2.61l.74-2.66Z" transform="translate(-4.29 -12.07)"/><path d="M37.66,88.27a21.15,21.15,0,0,0-2.44.85c-.74.3-1.63.68-2.61,1.16A28.35,28.35,0,0,0,29.46,92a35.84,35.84,0,0,0-3.36,2.44,35.13,35.13,0,0,0-3.21,3.15,28.69,28.69,0,0,0-2.73,3.8,23.15,23.15,0,0,0-1.91,4.35s-.21,1.49-.45,0a36.72,36.72,0,0,0-1.63-4.57c-.59-1.51-1.32-3-2.06-4.5s-1.48-2.93-2.27-4.35-1.49-2.76-2.24-4c-1.51-2.58-2.73-4.8-3.74-6.41L4.29,79.36l9.59,2.56.9-3.14c.3-1,.69-2.07,1-3.1s.7-2.06,1.12-3.06l.6-1.52.15-.38.35-.88c.19-.47.42-.93.62-1.4l1.27-2.8A96.58,96.58,0,0,1,26,55c1.07-1.75,2.33-3.36,3.49-5s2.48-3.26,3.85-4.78A94,94,0,0,1,62,22.45a94.19,94.19,0,0,1,47.42-10.28,95.46,95.46,0,0,1,24.1,4.29,94.61,94.61,0,0,1,55,46.1l-6.64,3.49.43-.19-6.65,3.49a80,80,0,0,0-46.5-39,80.9,80.9,0,0,0-20.36-3.62A79.64,79.64,0,0,0,51.64,47.16a83.13,83.13,0,0,0-7.22,7.44c-1.16,1.28-2.16,2.7-3.25,4s-2.06,2.78-3,4.26a82.44,82.44,0,0,0-5.09,9l-1.07,2.36c-.17.4-.36.79-.53,1.19l-.3.77-.12.32-.5,1.29c-.36.85-.65,1.72-.93,2.59s-.61,1.73-.86,2.62l-.74,2.65Z" transform="translate(-4.29 -12.07)"/></svg>