<svg id="Layer_1" data-name="Layer 1" xmlns="http://www.w3.org/2000/svg" viewBox="0 0 182.23 182.29"><title>wild</title><path d="M171.21,28.94C153.77,11.5,127.78,5,99.89,11.08,79,15.64,59.4,26.66,43.11,43c-39.19,39.18-45.48,96.65-14,128.1,13.12,13.12,31,20.08,51.18,20.08a90,90,0,0,0,10-.56,104.7,104.7,0,0,0,35.4-10.65A122.61,122.61,0,0,0,157.19,157c19-19,30.88-42.72,33.54-66.9S186.46,44.19,171.21,28.94ZM189.74,90a95.71,95.71,0,0,1-1.53,9.47c-.06.33-.14.67-.22,1-4.5,20.27-15.45,39.78-31.51,55.83s-35.66,27.07-56,31.55c-.33.08-.67.15-1,.21a92.68,92.68,0,0,1-9.32,1.5c-23.91,2.63-45.36-4.2-60.39-19.23-17.64-17.64-23.23-43.59-17.67-69.83.07-.33.14-.67.22-1,4.37-19.64,15-39.38,31.47-55.87,16-16,35.25-26.87,55.69-31.46l.61-.14.39-.08A92.74,92.74,0,0,1,120,9.85c19.76,0,37.53,6.83,50.5,19.79C185.54,44.68,192.37,66.12,189.74,90Z" transform="translate(-9.06 -8.85)" fill="#231f20"/><path d="M99.5,100.52v87.57a92.68,92.68,0,0,1-9.32,1.5c-23.91,2.63-45.36-4.2-60.39-19.23-17.64-17.64-23.23-43.59-17.67-69.83Z" transform="translate(-9.06 -8.85)" fill="#7dc466"/><path d="M189.74,90a95.71,95.71,0,0,1-1.53,9.47H100.65L100.5,12A92.74,92.74,0,0,1,120,9.85c19.76,0,37.53,6.83,50.5,19.79C185.54,44.68,192.37,66.12,189.74,90Z" transform="translate(-9.06 -8.85)" fill="#64a0d6"/><path d="M99.5,12.2V99.52H12.34c4.37-19.64,15-39.38,31.47-55.87C59.82,27.66,79.06,16.79,99.5,12.2Z" transform="translate(-9.06 -8.85)" fill="#f26750"/><path d="M188,100.5c-4.5,20.27-15.45,39.78-31.51,55.83s-35.66,27.07-56,31.55l.15-87.37Z" transform="translate(-9.06 -8.85)" fill="#fec244"/><path d="M100,188.49" transform="translate(-9.06 -8.85)" fill="none" stroke="#231f20" stroke-miterlimit="10"/><polygon points="91.59 90.66 91.59 91.66 91.44 179.03 91.44 179.64 90.44 179.64 90.44 2.72 91.44 2.72 91.44 3.13 91.59 90.66" fill="#231f20"/><polygon points="179.55 90.65 179.55 91.65 178.93 91.65 91.59 91.66 90.44 91.67 3.06 91.68 2.63 91.68 2.63 90.68 3.28 90.68 90.44 90.67 91.59 90.66 179.15 90.65 179.55 90.65" fill="#231f20"/></svg>